<svg width="27" height="28" viewBox="0 0 27 28" fill="none" xmlns="http://www.w3.org/2000/svg">
<path d="M11.0821 12.8598C11.3115 12.6875 11.4223 12.4031 11.4223 12.0121C11.4302 11.8262 11.3933 11.643 11.3142 11.4762C11.243 11.3422 11.1375 11.2301 11.0083 11.1508C10.8743 11.0665 10.7256 11.0108 10.5706 10.9867C10.4019 10.9539 10.2305 10.9375 10.0617 10.9402H8.20811V13.1195H10.2146C10.5601 13.1223 10.8527 13.0348 11.0821 12.8598ZM11.3933 14.8285C11.1349 14.6234 10.7895 14.5223 10.3597 14.5223H8.20283V17.0926H10.3175C10.5152 17.0926 10.6972 17.0734 10.8738 17.0352C11.041 17.0013 11.2003 16.9344 11.3432 16.8383C11.4776 16.748 11.5857 16.625 11.6675 16.4664C11.7466 16.3078 11.7861 16.1055 11.7861 15.8621C11.7861 15.3781 11.6543 15.0363 11.3933 14.8285ZM13.5 1.75C6.97676 1.75 1.6875 7.23516 1.6875 14C1.6875 20.7648 6.97676 26.25 13.5 26.25C20.0232 26.25 25.3125 20.7648 25.3125 14C25.3125 7.23516 20.0232 1.75 13.5 1.75ZM15.7808 9.59492H19.43V10.5164H15.7808V9.59492ZM13.5 17.1937C13.3293 17.5297 13.0856 17.82 12.7881 18.0414C12.477 18.2656 12.1315 18.4297 11.765 18.5254C11.3816 18.6319 10.986 18.6844 10.5891 18.6812H6.22266V9.3543H10.4678C10.8976 9.3543 11.2878 9.39531 11.6438 9.47187C11.9971 9.54844 12.2977 9.67969 12.5508 9.85742C12.8013 10.0352 12.999 10.273 13.1388 10.5684C13.2759 10.8609 13.3471 11.2273 13.3471 11.6621C13.3471 12.1324 13.2442 12.5207 13.0386 12.8352C12.8303 13.1496 12.5297 13.4039 12.121 13.6035C12.6773 13.7676 13.086 14.0602 13.355 14.4703C13.6292 14.8859 13.7637 15.3836 13.7637 15.9688C13.7637 16.4445 13.6767 16.852 13.5 17.1937ZM20.8512 15.75H16.1473C16.1473 16.2805 16.3239 16.7891 16.5902 17.0625C16.8592 17.3332 17.2441 17.4699 17.7478 17.4699C18.1116 17.4699 18.4201 17.3742 18.6838 17.1855C18.9448 16.9969 19.103 16.7973 19.161 16.5895H20.7378C20.4847 17.4016 20.0997 17.9813 19.5776 18.3313C19.0608 18.6813 18.428 18.8562 17.6924 18.8562C17.1782 18.8562 16.7168 18.7687 16.3028 18.602C15.9047 18.4406 15.5461 18.1945 15.2508 17.8773C14.9596 17.5516 14.7345 17.1685 14.589 16.7508C14.4281 16.2887 14.349 15.802 14.3543 15.3125C14.3543 14.8066 14.436 14.3363 14.5942 13.8988C14.8975 13.0484 15.5276 12.3676 16.3318 12.0148C16.7616 11.8289 17.223 11.7359 17.6897 11.7414C18.2435 11.7414 18.7233 11.8508 19.1399 12.075C19.541 12.2891 19.8892 12.596 20.1577 12.9719C20.424 13.3465 20.6112 13.773 20.7299 14.2543C20.8433 14.7273 20.8828 15.225 20.8512 15.75ZM17.6344 13.1359C17.3496 13.1359 17.1097 13.1879 16.9251 13.2891C16.7405 13.3902 16.5876 13.516 16.4716 13.6609C16.3611 13.8009 16.2794 13.9628 16.2316 14.1367C16.1895 14.2816 16.1604 14.4293 16.1499 14.5797H19.0635C19.0213 14.1066 18.8631 13.7566 18.6521 13.5105C18.4307 13.2672 18.0747 13.1359 17.6344 13.1359Z" fill="#C4C4C4"/>
</svg>
