<svg width="140" height="140" viewBox="0 0 140 140" fill="none" xmlns="http://www.w3.org/2000/svg">
<circle cx="70" cy="70" r="70" fill="#161616"/>
<path d="M70.2797 39.3743C74.5252 39.3743 77.9669 35.9326 77.9669 31.6871C77.9669 27.4417 74.5252 24 70.2797 24C66.0343 24 62.5925 27.4417 62.5925 31.6871C62.5925 35.9326 66.0341 39.3743 70.2797 39.3743ZM70.2797 27.8436C72.4025 27.8436 74.1233 29.5643 74.1233 31.6871C74.1233 33.8099 72.4025 35.5307 70.2797 35.5307C68.1569 35.5307 66.4361 33.8099 66.4361 31.6871C66.4361 29.5643 68.1569 27.8436 70.2797 27.8436Z" fill="#C4C4C4"/>
<path d="M73.0721 40.6211C73.038 40.6217 73.0042 40.6226 72.9704 40.6235H67.5893C61.807 40.4633 56.9897 45.0209 56.8295 50.8031C56.8286 50.8369 56.8279 50.8709 56.8271 50.9048V52.4421C56.8271 53.4991 57.8841 54.0757 58.9411 54.0757H81.6184C82.6754 54.0757 83.7324 53.4991 83.7324 52.4421V50.9048C83.6283 45.1214 78.8555 40.5172 73.0721 40.6211ZM60.8629 50.232C61.0551 47.3495 64.0339 44.4668 67.5892 44.4668H72.9702C76.5256 44.4668 79.5044 47.3493 79.6964 50.232H60.8629Z" fill="#C4C4C4"/>
<path d="M39.0505 72.8137C40.1119 72.8137 40.9723 71.9533 40.9723 70.8919C40.9662 62.0018 44.9956 53.5895 51.9265 48.0223C52.6868 47.2816 52.7026 46.065 51.962 45.3046C51.3177 44.6433 50.294 44.5336 49.5243 45.0435C41.6769 51.3265 37.1151 60.839 37.1287 70.8919C37.1287 71.9533 37.9891 72.8137 39.0505 72.8137Z" fill="#C4C4C4"/>
<path d="M79.6453 98.6448C79.6302 98.6501 79.6152 98.6556 79.6003 98.6613C73.5825 100.676 67.0726 100.676 61.0549 98.6613C60.047 98.3472 58.9744 98.905 58.6527 99.9105C58.2876 100.85 58.7537 101.908 59.6935 102.273C59.7305 102.288 59.7678 102.301 59.8057 102.313C66.6307 104.619 74.0245 104.619 80.8493 102.313C81.8678 101.949 82.4189 100.847 82.0985 99.8143C81.7442 98.8141 80.6459 98.2904 79.6453 98.6448Z" fill="#C4C4C4"/>
<path d="M87.1916 46.9653C94.975 52.4449 99.6004 61.3731 99.5872 70.8919C99.5872 71.9533 100.448 72.8137 101.509 72.8137C102.57 72.8137 103.431 71.9533 103.431 70.8919C103.404 60.1239 98.1791 50.0317 89.4016 43.7943C88.5259 43.184 87.3214 43.399 86.711 44.2747C86.1007 45.1504 86.3159 46.3551 87.1916 46.9653Z" fill="#C4C4C4"/>
<path d="M41.4528 92.2239C45.6983 92.2239 49.14 88.7821 49.14 84.5366C49.14 80.2911 45.6983 76.8494 41.4528 76.8494C37.2074 76.8494 33.7656 80.2909 33.7656 84.5366C33.7656 88.7823 37.2074 92.2239 41.4528 92.2239ZM41.4528 80.693C43.5756 80.693 45.2964 82.4138 45.2964 84.5366C45.2964 86.6595 43.5756 88.3802 41.4528 88.3802C39.33 88.3802 37.6092 86.6595 37.6092 84.5366C37.6092 82.4138 39.33 80.693 41.4528 80.693Z" fill="#C4C4C4"/>
<path d="M44.2451 93.4702C44.211 93.4708 44.1772 93.4717 44.1433 93.4726H38.7622C32.9799 93.3124 28.1626 97.8702 28.0024 103.653C28.0015 103.686 28.0007 103.72 28 103.754V105.292C28 106.349 29.057 106.925 30.114 106.925H52.7912C53.8482 106.925 54.9052 106.349 54.9052 105.292V103.754C54.8014 97.9706 50.0287 93.3663 44.2451 93.4702ZM32.036 103.081C32.2282 100.199 35.207 97.3161 38.7622 97.3161H44.1432C47.6986 97.3161 50.6773 100.199 50.8694 103.081H32.036Z" fill="#C4C4C4"/>
<path d="M91.4194 84.5366C91.4194 88.7821 94.8612 92.2239 99.1066 92.2239C103.352 92.2239 106.794 88.7821 106.794 84.5366C106.794 80.2911 103.352 76.8494 99.1066 76.8494C94.8612 76.8494 91.4194 80.2909 91.4194 84.5366ZM102.95 84.5366C102.95 86.6595 101.229 88.3802 99.1066 88.3802C96.9838 88.3802 95.263 86.6595 95.263 84.5366C95.263 82.4138 96.9838 80.693 99.1066 80.693C101.229 80.693 102.95 82.4138 102.95 84.5366Z" fill="#C4C4C4"/>
<path d="M101.899 93.4702C101.865 93.4708 101.831 93.4717 101.797 93.4726H96.416C90.6337 93.3124 85.8164 97.8702 85.6562 103.653C85.6553 103.686 85.6545 103.72 85.6538 103.754V105.292C85.6538 106.349 86.7108 106.925 87.7678 106.925H110.445C111.502 106.925 112.559 106.349 112.559 105.292V103.754C112.455 97.9706 107.682 93.3663 101.899 93.4702ZM89.6896 103.081C89.8818 100.199 92.8606 97.3161 96.4158 97.3161H101.797C105.352 97.3161 108.331 100.199 108.523 103.081H89.6896Z" fill="#C4C4C4"/>
</svg>
