<svg width="140" height="140" viewBox="0 0 140 140" fill="none" xmlns="http://www.w3.org/2000/svg">
<circle cx="70" cy="70" r="70" fill="#161616"/>
<path d="M30.4524 67.2393H64.7863C66.1407 67.2393 67.2387 66.1412 67.2387 64.7868C67.2387 56.7519 62.3832 49.8309 55.4529 46.8008C57.431 44.8054 58.6552 42.0612 58.6552 39.036C58.6552 32.9507 53.7046 28 47.6194 28C41.5341 28 36.5835 32.9507 36.5835 39.036C36.5835 42.0612 37.8077 44.8054 39.7858 46.8008C32.8555 49.8309 28 56.7519 28 64.7868C28 66.1412 29.098 67.2393 30.4524 67.2393ZM41.4883 39.036C41.4883 35.6553 44.2386 32.9049 47.6194 32.9049C51.0001 32.9049 53.7504 35.6553 53.7504 39.036C53.7504 42.4168 51.0001 45.1672 47.6194 45.1672C44.2386 45.1672 41.4883 42.4168 41.4883 39.036ZM47.6194 50.0721C54.8976 50.0721 60.9586 55.3839 62.1295 62.3344H33.1092C34.2802 55.3839 40.3411 50.0721 47.6194 50.0721Z" fill="#C4C4C4"/>
<path d="M99.9233 91.2713C101.901 89.2759 103.126 86.5318 103.126 83.5066C103.126 77.4213 98.1751 72.4707 92.0898 72.4707C86.0045 72.4707 81.0539 77.4213 81.0539 83.5066C81.0539 86.5318 82.2782 89.2759 84.2563 91.2713C77.3259 94.3014 72.4705 101.222 72.4705 109.257C72.4705 110.611 73.5685 111.709 74.9229 111.709H109.257C110.611 111.709 111.709 110.611 111.709 109.257C111.709 101.222 106.854 94.3014 99.9233 91.2713ZM85.9588 83.5066C85.9588 80.1259 88.7091 77.3755 92.0898 77.3755C95.4706 77.3755 98.2209 80.1259 98.2209 83.5066C98.2209 86.8874 95.4706 89.6377 92.0898 89.6377C88.7091 89.6377 85.9588 86.8874 85.9588 83.5066ZM77.5797 106.805C78.7506 99.8543 84.8115 94.5425 92.0898 94.5425C99.3681 94.5425 105.429 99.8543 106.6 106.805H77.5797Z" fill="#C4C4C4"/>
<path d="M73.7513 40.6833C72.9008 42.9099 72.4707 45.2365 72.4707 47.6196C72.4707 58.4379 81.2719 67.2393 92.09 67.2393C102.908 67.2393 111.709 58.4379 111.709 47.6196C111.709 37.2974 103.816 28.7351 93.5672 28.0057C93.398 28 93.112 28 92.9075 28H68.3833C67.4306 28 66.5642 28.5516 66.1612 29.4149C65.7582 30.278 65.8915 31.2966 66.5031 32.0269L73.7513 40.6833ZM92.458 32.9049C92.5805 32.9049 92.5805 32.9049 92.7486 32.9003C100.606 33.2713 106.805 39.7612 106.805 47.6196C106.805 55.7333 100.204 62.3344 92.09 62.3344C83.9764 62.3344 77.3755 55.7333 77.3755 47.6196C77.3755 45.4397 77.8588 43.319 78.8118 41.316C79.224 40.45 79.0933 39.423 78.4776 38.6878L73.6356 32.9049H92.458Z" fill="#C4C4C4"/>
<path d="M85.5501 45.167H98.6296C99.984 45.167 101.082 44.069 101.082 42.7147C101.082 41.3604 99.984 40.2625 98.6296 40.2625H85.5501C84.1957 40.2625 83.0977 41.3604 83.0977 42.7147C83.0977 44.069 84.1957 45.167 85.5501 45.167Z" fill="#C4C4C4"/>
<path d="M85.5501 54.9771H98.6296C99.984 54.9771 101.082 53.879 101.082 52.5245C101.082 51.1701 99.984 50.072 98.6296 50.072H85.5501C84.1957 50.072 83.0977 51.1701 83.0977 52.5245C83.0977 53.879 84.1957 54.9771 85.5501 54.9771Z" fill="#C4C4C4"/>
<path d="M73.2063 76.4976C73.8179 75.7673 73.9512 74.7487 73.5481 73.8856C73.1451 73.0223 72.2788 72.4707 71.3261 72.4707H46.8019C46.5974 72.4707 46.3114 72.4707 46.1422 72.4764C35.8934 73.2058 28 81.768 28 92.0901C28 102.908 36.8012 111.709 47.6194 111.709C58.4375 111.709 67.2387 102.908 67.2387 92.0901C67.2387 89.707 66.8086 87.3806 65.9582 85.1538L73.2063 76.4976ZM47.6194 106.805C39.5058 106.805 32.9048 100.204 32.9048 92.0901C32.9048 84.2317 39.1031 77.7419 46.9608 77.371C47.1289 77.3755 47.1289 77.3755 47.2513 77.3755H66.074L61.2318 83.1584C60.616 83.8938 60.4854 84.9205 60.8976 85.7865C61.8506 87.7895 62.3339 89.9104 62.3339 92.0901C62.3339 100.204 55.733 106.805 47.6194 106.805Z" fill="#C4C4C4"/>
<path d="M54.1592 84.7332H41.0796C39.7252 84.7332 38.6272 85.8311 38.6272 87.1853C38.6272 88.5395 39.7252 89.6375 41.0796 89.6375H54.1592C55.5136 89.6375 56.6116 88.5395 56.6116 87.1853C56.6116 85.8311 55.5136 84.7332 54.1592 84.7332Z" fill="#C4C4C4"/>
<path d="M54.1592 94.5425H41.0796C39.7252 94.5425 38.6272 95.6406 38.6272 96.995C38.6272 98.3494 39.7252 99.4475 41.0796 99.4475H54.1592C55.5136 99.4475 56.6116 98.3494 56.6116 96.995C56.6116 95.6406 55.5136 94.5425 54.1592 94.5425Z" fill="#C4C4C4"/>
</svg>
