<svg width="24" height="25" viewBox="0 0 24 25" fill="none" xmlns="http://www.w3.org/2000/svg">
<path d="M12.0001 1.53955C5.68811 1.53955 0.571533 6.55088 0.571533 12.733C0.571533 18.9152 5.68811 23.9265 12.0001 23.9265C18.3121 23.9265 23.4287 18.9152 23.4287 12.733C23.4287 6.55088 18.3121 1.53955 12.0001 1.53955ZM12.0001 3.16149C14.4898 3.16149 16.7624 4.07376 18.4881 5.57481C17.2201 7.21298 15.2938 8.30378 13.3635 9.04199C12.2708 7.09284 11.0462 5.21747 9.69782 3.42845C10.4519 3.25042 11.225 3.1608 12.0007 3.16149H12.0001ZM7.84239 4.06816C9.11668 5.93524 10.351 7.66631 11.4784 9.62573C8.62696 10.3494 5.40468 10.7837 2.4281 10.791C3.05553 7.80903 5.10068 5.33303 7.84239 4.06872V4.06816ZM19.5721 6.68184C20.9843 8.37204 21.7611 10.4859 21.7727 12.6698C19.5121 12.2333 17.2641 12.1191 14.975 12.3452C14.7178 11.7167 14.4058 11.1195 14.107 10.4759C16.0801 9.69625 18.1898 8.36199 19.5721 6.68128V6.68184ZM12.2721 11.1066C12.5167 11.6159 12.8001 12.1566 13.0664 12.709C9.88353 14.0835 6.49782 15.9204 4.74068 19.1408C3.05382 17.3125 2.15485 14.9157 2.2321 12.4527C5.64068 12.437 8.98639 12.0195 12.2721 11.1066ZM17.4367 13.7164C18.8589 13.7167 20.2751 13.8954 21.651 14.2481C21.4388 15.5444 20.9566 16.7842 20.2344 17.8902C19.5121 18.9962 18.5653 19.9448 17.4527 20.6771C16.9281 18.3404 16.4281 16.1045 15.5441 13.8502C16.1706 13.7607 16.803 13.7159 17.4361 13.7158L17.4367 13.7164ZM21.7018 13.8899C21.695 13.9447 21.6887 13.9985 21.6807 14.0522C21.6887 13.9979 21.6955 13.9442 21.7018 13.8899ZM13.7361 14.2873C14.6367 16.5668 15.3435 19.091 15.8178 21.5474C14.6105 22.0491 13.3122 22.3068 12.0007 22.3052C9.82802 22.3082 7.71683 21.5989 6.00353 20.2903C7.77325 17.4785 10.5144 15.3506 13.7355 14.2878L13.7361 14.2873Z" fill="#C4C4C4"/>
</svg>
