<svg width="26" height="26" viewBox="0 0 26 26" fill="none" xmlns="http://www.w3.org/2000/svg">
<path d="M24.6999 18.85V7.15001C24.6999 6.07101 23.8289 5.20001 22.7499 5.20001H4.53691C3.45791 5.20001 2.58691 6.07101 2.58691 7.15001V18.85C2.58691 19.929 3.45791 20.8 4.53691 20.8H22.7499C23.8289 20.8 24.6999 19.929 24.6999 18.85ZM22.9969 7.00701C23.4259 7.43601 23.1919 7.87801 22.9579 8.09901L17.6799 12.935L22.7499 18.213C22.9059 18.395 23.0099 18.681 22.8279 18.876C22.6589 19.084 22.2689 19.071 22.0999 18.941L16.4189 14.092L13.6369 16.627L10.8679 14.092L5.18691 18.941C5.01791 19.071 4.62791 19.084 4.45891 18.876C4.27691 18.681 4.38091 18.395 4.53691 18.213L9.60691 12.935L4.32891 8.09901C4.09491 7.87801 3.86091 7.43601 4.28991 7.00701C4.71891 6.57801 5.16091 6.78601 5.52491 7.09801L13.6369 13.65L21.7619 7.09801C22.1259 6.78601 22.5679 6.57801 22.9969 7.00701Z" fill="black"/>
</svg>
