<svg width="28" height="28" viewBox="0 0 28 28" fill="none" xmlns="http://www.w3.org/2000/svg">
<g clip-path="url(#clip0)">
<path d="M4.9587 0C2.2118 0 0 2.2118 0 4.9587V22.1983C0 24.9452 2.2118 27.157 4.9587 27.157H14.3024V16.5403H11.4951V12.718H14.3024V9.45234C14.3024 6.88669 15.9611 4.53098 19.7822 4.53098C21.3293 4.53098 22.4733 4.6795 22.4733 4.6795L22.3833 8.24896C22.3833 8.24896 21.2166 8.23794 19.9434 8.23794C18.5655 8.23794 18.3445 8.87281 18.3445 9.92677V12.718H22.4928L22.312 16.5403H18.3445V27.157H22.1983C24.9452 27.157 27.157 24.9452 27.157 22.1983V4.95873C27.157 2.21183 24.9452 2.7157e-05 22.1983 2.7157e-05H4.95868L4.9587 0Z" fill="#ECECEC"/>
</g>
<defs>
<clipPath id="clip0">
<rect width="27.157" height="27.157" fill="white"/>
</clipPath>
</defs>
</svg>
