<svg width="28" height="25" viewBox="0 0 28 25" fill="none" xmlns="http://www.w3.org/2000/svg">
<path d="M5.11263 0C2.28046 0 0 1.99425 0 4.47096V20.0149C0 22.4916 2.28046 24.4858 5.11263 24.4858H14.7464V14.9134H11.8519V11.467H14.7464V8.5226C14.7464 6.2093 16.4566 4.08531 20.3963 4.08531C21.9914 4.08531 23.1709 4.21922 23.1709 4.21922L23.0781 7.43758C23.0781 7.43758 21.8752 7.42764 20.5625 7.42764C19.1418 7.42764 18.914 8.00007 18.914 8.95036V11.467H23.191L23.0046 14.9134H18.914V24.4858H22.8874C25.7195 24.4858 28 22.4916 28 20.0149V4.47098C28 1.99427 25.7195 2.44858e-05 22.8874 2.44858e-05H5.1126L5.11263 0Z" fill="#C4C4C4"/>
</svg>
