<svg width="27" height="25" viewBox="0 0 27 25" fill="none" xmlns="http://www.w3.org/2000/svg">
<path d="M13.4964 5.96112C9.66323 5.96112 6.56969 8.76664 6.56969 12.2429C6.56969 15.7192 9.66323 18.5247 13.4964 18.5247C17.3295 18.5247 20.423 15.7192 20.423 12.2429C20.423 8.76664 17.3295 5.96112 13.4964 5.96112ZM13.4964 16.3256C11.0175 16.3256 8.99454 14.491 8.99454 12.2429C8.99454 9.99483 11.0175 8.16021 13.4964 8.16021C15.9752 8.16021 17.9982 9.99483 17.9982 12.2429C17.9982 14.491 15.9752 16.3256 13.4964 16.3256ZM20.7067 4.23983C19.8118 4.23983 19.089 4.89526 19.089 5.70691C19.089 6.51855 19.8118 7.17399 20.7067 7.17399C21.6017 7.17399 22.3244 6.52161 22.3244 5.70691C22.3247 5.51418 22.283 5.3233 22.2018 5.14519C22.1206 4.96709 22.0015 4.80526 21.8512 4.66898C21.7009 4.5327 21.5225 4.42465 21.3261 4.35101C21.1297 4.27737 20.9192 4.23958 20.7067 4.23983ZM26.9985 12.2429C26.9985 10.5523 27.0154 8.8769 26.9107 7.1893C26.806 5.22911 26.3129 3.48944 24.7324 2.05605C23.1485 0.619596 21.2336 0.175491 19.0722 0.0805437C17.2079 -0.014403 15.3606 0.000911012 13.4997 0.000911012C11.6355 0.000911012 9.78819 -0.014403 7.92734 0.0805437C5.76592 0.175491 3.84766 0.622659 2.26712 2.05605C0.683203 3.4925 0.193506 5.22911 0.0888122 7.1893C-0.0158816 8.87997 0.00100453 10.5553 0.00100453 12.2429C0.00100453 13.9305 -0.0158816 15.6089 0.0888122 17.2965C0.193506 19.2567 0.68658 20.9964 2.26712 22.4298C3.85103 23.8662 5.76592 24.3103 7.92734 24.4053C9.79156 24.5002 11.6389 24.4849 13.4997 24.4849C15.364 24.4849 17.2113 24.5002 19.0722 24.4053C21.2336 24.3103 23.1518 23.8632 24.7324 22.4298C26.3163 20.9933 26.806 19.2567 26.9107 17.2965C27.0188 15.6089 26.9985 13.9336 26.9985 12.2429ZM24.0265 19.465C23.78 20.0224 23.4828 20.439 23.0066 20.8678C22.5304 21.2996 22.0745 21.5691 21.4599 21.7927C19.6834 22.4329 15.4653 22.2889 13.4964 22.2889C11.5275 22.2889 7.30593 22.4329 5.52951 21.7958C4.91486 21.5722 4.45556 21.3027 3.98275 20.8708C3.50656 20.439 3.20936 20.0255 2.96283 19.4681C2.26036 17.854 2.41909 14.0285 2.41909 12.2429C2.41909 10.4573 2.26036 6.62881 2.96283 5.01778C3.20936 4.46035 3.50656 4.04381 3.98275 3.61501C4.45893 3.18622 4.91486 2.91363 5.52951 2.69005C7.30593 2.05299 11.5275 2.19694 13.4964 2.19694C15.4653 2.19694 19.6868 2.05299 21.4632 2.69005C22.0779 2.91363 22.5372 3.18316 23.01 3.61501C23.4862 4.04687 23.7834 4.46035 24.0299 5.01778C24.7324 6.62881 24.5737 10.4573 24.5737 12.2429C24.5737 14.0285 24.7324 17.854 24.0265 19.465Z" fill="#C4C4C4"/>
</svg>
