<svg width="36" height="36" viewBox="0 0 36 36" fill="none" xmlns="http://www.w3.org/2000/svg">
<path d="M17.8975 11.0034C16.0683 11.0034 14.314 11.73 13.0206 13.0235C11.7271 14.3169 11.0005 16.0712 11.0005 17.9004C11.0005 19.7297 11.7271 21.4839 13.0206 22.7774C14.314 24.0708 16.0683 24.7975 17.8975 24.7975C19.7268 24.7975 21.481 24.0708 22.7745 22.7774C24.0679 21.4839 24.7946 19.7297 24.7946 17.9004C24.7946 16.0712 24.0679 14.3169 22.7745 13.0235C21.481 11.73 19.7268 11.0034 17.8975 11.0034ZM17.8975 22.3796C16.7092 22.3796 15.5695 21.9076 14.7292 21.0673C13.8889 20.227 13.4168 19.0873 13.4168 17.8989C13.4168 16.7106 13.8889 15.5709 14.7292 14.7306C15.5695 13.8903 16.7092 13.4183 17.8975 13.4183C19.0859 13.4183 20.2256 13.8903 21.0659 14.7306C21.9062 15.5709 22.3782 16.7106 22.3782 17.8989C22.3782 19.0873 21.9062 20.227 21.0659 21.0673C20.2256 21.9076 19.0859 22.3796 17.8975 22.3796Z" fill="#ECECEC"/>
<path d="M25.0674 12.3577C25.9554 12.3577 26.6753 11.6379 26.6753 10.7498C26.6753 9.8618 25.9554 9.14191 25.0674 9.14191C24.1794 9.14191 23.4595 9.8618 23.4595 10.7498C23.4595 11.6379 24.1794 12.3577 25.0674 12.3577Z" fill="#ECECEC"/>
<path d="M30.6264 9.11502C30.2811 8.22332 29.7534 7.41355 29.0771 6.73753C28.4009 6.06151 27.5909 5.53414 26.6991 5.18919C25.6555 4.79743 24.5529 4.58561 23.4385 4.56272C22.0021 4.50008 21.5471 4.48218 17.9047 4.48218C14.2623 4.48218 13.7954 4.48218 12.371 4.56272C11.2573 4.58444 10.1556 4.79631 9.11336 5.18919C8.2213 5.53374 7.41112 6.06097 6.73479 6.73704C6.05847 7.41311 5.53093 8.22309 5.18604 9.11502C4.79421 10.1585 4.58287 11.2612 4.56107 12.3756C4.49693 13.8105 4.47754 14.2654 4.47754 17.9094C4.47754 21.5518 4.47754 22.0157 4.56107 23.4431C4.58344 24.5588 4.79375 25.6596 5.18604 26.7052C5.5319 27.5968 6.05995 28.4064 6.73644 29.0824C7.41293 29.7584 8.22298 30.2858 9.11485 30.631C10.1551 31.0385 11.2573 31.2655 12.3739 31.3022C13.8103 31.3649 14.2653 31.3843 17.9077 31.3843C21.5501 31.3843 22.017 31.3843 23.4414 31.3022C24.5558 31.2796 25.6583 31.0682 26.702 30.6773C27.5936 30.3315 28.4034 29.8037 29.0796 29.1275C29.7558 28.4513 30.2836 27.6415 30.6294 26.7499C31.0216 25.7058 31.232 24.605 31.2543 23.4893C31.3185 22.0544 31.3379 21.5995 31.3379 17.9556C31.3379 14.3117 31.3379 13.8493 31.2543 12.4218C31.237 11.2916 31.0245 10.1729 30.6264 9.11502ZM28.8096 23.3327C28.8 24.1923 28.6431 25.0439 28.3458 25.8505C28.1218 26.4305 27.7788 26.9573 27.339 27.3968C26.8993 27.8363 26.3723 28.1789 25.7922 28.4026C24.9945 28.6986 24.152 28.8555 23.3012 28.8665C21.8842 28.9321 21.4845 28.9485 17.851 28.9485C14.2146 28.9485 13.8432 28.9485 12.3993 28.8665C11.549 28.8561 10.7069 28.6991 9.90986 28.4026C9.32768 28.1803 8.79864 27.8383 8.35697 27.3987C7.91529 26.9591 7.57082 26.4316 7.34584 25.8505C7.05267 25.0526 6.89585 24.211 6.88196 23.3611C6.81782 21.9441 6.80291 21.5443 6.80291 17.9108C6.80291 14.2759 6.80291 13.9045 6.88196 12.4591C6.8916 11.6 7.0485 10.7489 7.34584 9.94284C7.80077 8.76599 8.73301 7.83972 9.90986 7.38926C10.7072 7.09414 11.5491 6.93726 12.3993 6.92538C13.8178 6.86124 14.216 6.84334 17.851 6.84334C21.486 6.84334 21.8589 6.84334 23.3012 6.92538C24.1521 6.93562 24.9947 7.09254 25.7922 7.38926C26.3723 7.6134 26.8991 7.95636 27.3389 8.39612C27.7787 8.83588 28.1216 9.36272 28.3458 9.94284C28.6389 10.7408 28.7957 11.5823 28.8096 12.4323C28.8738 13.8508 28.8902 14.249 28.8902 17.884C28.8902 21.5175 28.8902 21.9083 28.826 23.3342H28.8096V23.3327Z" fill="#ECECEC"/>
</svg>
