<svg width="140" height="140" viewBox="0 0 140 140" fill="none" xmlns="http://www.w3.org/2000/svg">
<circle cx="70" cy="70" r="70" fill="#161616"/>
<path d="M34.4702 108.681H73.3163V105.692H34.4702C31.9949 105.692 29.988 103.685 29.988 101.21V35.4702C29.988 32.9941 31.9949 30.988 34.4702 30.988H100.21C102.686 30.988 104.692 32.9941 104.692 35.4702V69.8338H107.681V35.4702C107.676 31.3464 104.334 28.0049 100.21 28H34.4702C30.3471 28.0049 27.0052 31.3464 27 35.4702V101.21C27.0052 105.334 30.3471 108.675 34.4702 108.681Z" fill="#C4C4C4"/>
<path d="M32.9768 33.9768H35.9645V36.9644H32.9768V33.9768Z" fill="#C4C4C4"/>
<path d="M38.9524 33.9768H41.9412V36.9644H38.9524V33.9768Z" fill="#C4C4C4"/>
<path d="M44.9287 33.9768H47.9171V36.9644H44.9287V33.9768Z" fill="#C4C4C4"/>
<path d="M32.9768 39.9521H101.704V42.9414H32.9768V39.9521Z" fill="#C4C4C4"/>
<path d="M48.3549 46.3665L44.5599 50.1615C41.352 48.0378 37.0563 48.6894 34.6218 51.6688C32.1877 54.6478 32.406 58.9873 35.1262 61.7071C37.8461 64.4281 42.186 64.6464 45.1654 62.2119C48.1444 59.7778 48.7964 55.4814 46.6723 52.2743L50.467 48.4793L48.3549 46.3665ZM40.4462 60.869C37.9712 60.869 35.9643 58.8626 35.9643 56.3872C35.9643 53.9115 37.9712 51.9054 40.4462 51.9054C41.1127 51.9077 41.7685 52.0605 42.3665 52.3529L39.3905 55.3293L41.5026 57.4421L44.4809 54.4676C44.7733 55.0653 44.9265 55.721 44.9287 56.3872C44.9287 58.8626 42.9226 60.869 40.4462 60.869Z" fill="#C4C4C4"/>
<path d="M52.3994 51.9055H77.7981V54.8928H52.3994V51.9055Z" fill="#C4C4C4"/>
<path d="M52.3994 57.8818H62.8577V60.8691H52.3994V57.8818Z" fill="#C4C4C4"/>
<path d="M65.8462 57.8818H86.7627V60.8691H65.8462V57.8818Z" fill="#C4C4C4"/>
<path d="M80.7866 51.9055H95.7275V54.8928H80.7866V51.9055Z" fill="#C4C4C4"/>
<path d="M48.3549 64.2952L44.5599 68.0903C41.352 65.9665 37.0563 66.6181 34.6218 69.5976C32.1877 72.577 32.406 76.9163 35.1262 79.6369C37.8461 82.3573 42.186 82.5756 45.1654 80.141C48.1444 77.7064 48.7964 73.4114 46.6723 70.2031L50.467 66.408L48.3549 64.2952ZM40.4462 78.7985C37.9712 78.7985 35.9643 76.7916 35.9643 74.3162C35.9643 71.8404 37.9712 69.8335 40.4462 69.8335C41.1127 69.8361 41.7685 69.9893 42.3665 70.2818L39.3905 73.259L41.5026 75.3711L44.4809 72.3962C44.7733 72.9942 44.9265 73.65 44.9287 74.3162C44.9287 76.7916 42.9226 78.7985 40.4462 78.7985Z" fill="#C4C4C4"/>
<path d="M52.3994 69.8333H77.7981V72.822H52.3994V69.8333Z" fill="#C4C4C4"/>
<path d="M52.3994 75.8108H62.8577V78.7986H52.3994V75.8108Z" fill="#C4C4C4"/>
<path d="M65.8462 75.8108H77.7982V78.7986H65.8462V75.8108Z" fill="#C4C4C4"/>
<path d="M80.7866 69.8333H86.7627V72.822H80.7866V69.8333Z" fill="#C4C4C4"/>
<path d="M48.3549 82.2241L44.5599 86.0192C41.352 83.8955 37.0563 84.5471 34.6218 87.5265C32.1877 90.5059 32.406 94.8451 35.1262 97.5657C37.8461 100.286 42.186 100.504 45.1654 98.0698C48.1444 95.6352 48.7964 91.3399 46.6723 88.1316L50.467 84.337L48.3549 82.2241ZM40.4462 96.7272C37.9712 96.7272 35.9643 94.7204 35.9643 92.245C35.9643 89.7693 37.9712 87.7628 40.4462 87.7628C41.1127 87.765 41.7685 87.9178 42.3665 88.2107L39.3905 91.1878L41.5026 93.2999L44.4809 90.325C44.7733 90.9231 44.9265 91.5792 44.9287 92.245C44.9287 94.7204 42.9226 96.7272 40.4462 96.7272Z" fill="#C4C4C4"/>
<path d="M52.3994 87.7632H71.8221V90.7517H52.3994V87.7632Z" fill="#C4C4C4"/>
<path d="M52.3994 93.7393H62.8577V96.7273H52.3994V93.7393Z" fill="#C4C4C4"/>
<path d="M65.8462 93.7393H71.8222V96.7273H65.8462V93.7393Z" fill="#C4C4C4"/>
<path d="M97.222 117.645C109.6 117.645 119.633 107.61 119.633 95.2335C119.633 82.8556 109.6 72.822 97.222 72.822C84.8441 72.822 74.8105 82.8556 74.8105 95.2335C74.8252 107.605 84.8501 117.63 97.222 117.645ZM97.222 75.8104C107.948 75.8104 116.645 84.5064 116.645 95.2335C116.645 105.961 107.948 114.656 97.222 114.656C86.4945 114.656 77.7982 105.961 77.7982 95.2335C77.8109 84.5116 86.4993 75.8224 97.222 75.8104Z" fill="#C4C4C4"/>
<path d="M88.1082 96.059L85.4336 97.3944L88.422 103.371C88.6362 103.801 89.0451 104.101 89.5196 104.178C89.5967 104.19 89.6739 104.196 89.7514 104.198C90.1472 104.198 90.5273 104.04 90.8082 103.76L108.736 85.8313L106.624 83.7185L90.1603 100.181L88.1082 96.059Z" fill="#C4C4C4"/>
</svg>
