<svg width="46" height="47" viewBox="0 0 46 47" fill="none" xmlns="http://www.w3.org/2000/svg">
<path d="M41.0923 13.8929C40.8756 13.0778 40.452 12.3344 39.8637 11.7368C39.2754 11.1392 38.5429 10.7082 37.7392 10.4867C34.759 9.65731 22.8364 9.64381 22.8364 9.64381C22.8364 9.64381 10.9157 9.63031 7.93365 10.423C7.13042 10.6548 6.39946 11.0919 5.81093 11.6924C5.2224 12.293 4.79607 13.0367 4.57287 13.8524C3.78691 16.8728 3.7793 23.1374 3.7793 23.1374C3.7793 23.1374 3.77169 29.4329 4.55194 32.4225C4.98964 34.0755 6.27419 35.3812 7.90701 35.8268C10.9176 36.6561 22.8079 36.6696 22.8079 36.6696C22.8079 36.6696 34.7304 36.6831 37.7106 35.8924C38.5146 35.6712 39.2478 35.2412 39.8376 34.6448C40.4273 34.0484 40.8533 33.3063 41.0733 32.4919C41.8612 29.4734 41.8669 23.2107 41.8669 23.2107C41.8669 23.2107 41.9049 16.9133 41.0923 13.8929ZM19.0227 28.9411L19.0322 17.3685L28.9414 23.1644L19.0227 28.9411Z" fill="#ECECEC"/>
</svg>
