<svg width="39" height="25" viewBox="0 0 39 25" fill="none" xmlns="http://www.w3.org/2000/svg">
<path d="M38.1861 3.82494C37.964 3.08427 37.5288 2.40883 36.9238 1.86621C36.3188 1.32359 35.5653 0.932822 34.7387 0.733016C31.6962 1.48736e-07 19.5 0 19.5 0C19.5 0 7.30379 -1.48736e-07 4.26127 0.729116C3.43435 0.928275 2.68049 1.31883 2.07538 1.86155C1.47028 2.40427 1.03524 3.08005 0.813951 3.82104C-1.66042e-07 6.55035 0 12.2429 0 12.2429C0 12.2429 -1.66042e-07 17.9355 0.813951 20.6609C1.26228 22.1659 2.58549 23.3512 4.26127 23.7528C7.30379 24.4858 19.5 24.4858 19.5 24.4858C19.5 24.4858 31.6962 24.4858 34.7387 23.7528C36.4189 23.3512 37.7377 22.1659 38.1861 20.6609C39 17.9355 39 12.2429 39 12.2429C39 12.2429 39 6.55035 38.1861 3.82494ZM15.6261 17.4676V7.01823L25.7243 12.2039L15.6261 17.4676Z" fill="#C4C4C4"/>
</svg>
