<svg width="23" height="14" viewBox="0 0 23 14" fill="none" xmlns="http://www.w3.org/2000/svg">
<rect x="6" y="2" width="12" height="11" fill="white"/>
<path d="M22.52 11.6874C22.389 12.1064 22.1323 12.4885 21.7756 12.7954C21.4188 13.1024 20.9744 13.3234 20.4869 13.4364C18.6926 13.8511 11.5 13.8511 11.5 13.8511C11.5 13.8511 4.30737 13.8511 2.51306 13.4386C2.02539 13.326 1.5808 13.105 1.22394 12.798C0.867087 12.491 0.610525 12.1088 0.480022 11.6896C-9.79219e-08 10.1457 0 6.92554 0 6.92554C0 6.92554 -9.79219e-08 3.70538 0.480022 2.16368C0.74442 1.31232 1.52478 0.641825 2.51306 0.414649C4.30737 -9.53674e-07 11.5 0 11.5 0C11.5 0 18.6926 -9.53674e-07 20.4869 0.414649C21.4778 0.641825 22.2556 1.31232 22.52 2.16368C23 3.70538 23 6.92554 23 6.92554C23 6.92554 23 10.1457 22.52 11.6874ZM9.2154 3.97005V9.88102L15.1708 6.94759L9.2154 3.97005Z" fill="#FF0000"/>
</svg>
